<?xml version="1.0" encoding="UTF-8" standalone="no"?>
<!-- Created with Inkscape (http://www.inkscape.org/) -->

<svg
   xmlns:dc="http://purl.org/dc/elements/1.1/"
   xmlns:cc="http://creativecommons.org/ns#"
   xmlns:rdf="http://www.w3.org/1999/02/22-rdf-syntax-ns#"
   xmlns:svg="http://www.w3.org/2000/svg"
   xmlns="http://www.w3.org/2000/svg"
   xmlns:sodipodi="http://sodipodi.sourceforge.net/DTD/sodipodi-0.dtd"
   xmlns:inkscape="http://www.inkscape.org/namespaces/inkscape"
   id="svg2"
   version="1.1"
   inkscape:version="0.47 r22583"
   width="221.74126"
   height="46.084999"
   xml:space="preserve"
   sodipodi:docname="IDBI_Logo.svg"><metadata
     id="metadata8"><rdf:RDF><cc:Work
         rdf:about=""><dc:format>image/svg+xml</dc:format><dc:type
           rdf:resource="http://purl.org/dc/dcmitype/StillImage" /><dc:title /></cc:Work></rdf:RDF></metadata><defs
     id="defs6"><inkscape:perspective
       sodipodi:type="inkscape:persp3d"
       inkscape:vp_x="0 : 0.5 : 1"
       inkscape:vp_y="0 : 1000 : 0"
       inkscape:vp_z="1 : 0.5 : 1"
       inkscape:persp3d-origin="0.5 : 0.33333333 : 1"
       id="perspective10" /><clipPath
       clipPathUnits="userSpaceOnUse"
       id="clipPath22"><path
         d="M 0,0 594,0 594,774 0,774 0,0 z"
         id="path24" /></clipPath><clipPath
       clipPathUnits="userSpaceOnUse"
       id="clipPath88"><path
         d="m 394.396,645.549 177.39,0 0,36.864 -177.39,0 0,-36.864 z"
         id="path90" /></clipPath><clipPath
       clipPathUnits="userSpaceOnUse"
       id="clipPath322"><path
         d="m 24.41,405.814 211.542,0 0,206.994 -211.542,0 0,-206.994 z"
         id="path324" /></clipPath><clipPath
       clipPathUnits="userSpaceOnUse"
       id="clipPath334"><path
         d="m 235.473,405.814 211.683,0 0,206.994 -211.683,0 0,-206.994 z"
         id="path336" /></clipPath><clipPath
       clipPathUnits="userSpaceOnUse"
       id="clipPath346"><path
         d="m 446.676,371.258 147.324,0 0,241.549 -147.324,0 0,-241.549 z"
         id="path348" /></clipPath><clipPath
       clipPathUnits="userSpaceOnUse"
       id="clipPath358"><path
         d="m 24.41,198.954 211.542,0 0,207.34 -211.542,0 0,-207.34 z"
         id="path360" /></clipPath><clipPath
       clipPathUnits="userSpaceOnUse"
       id="clipPath370"><path
         d="m 235.473,198.954 211.683,0 0,207.34 -211.683,0 0,-207.34 z"
         id="path372" /></clipPath><clipPath
       clipPathUnits="userSpaceOnUse"
       id="clipPath382"><path
         d="m 446.676,130.08 147.324,0 0,241.658 -147.324,0 0,-241.658 z"
         id="path384" /></clipPath><clipPath
       clipPathUnits="userSpaceOnUse"
       id="clipPath394"><path
         d="m 24.41,0 211.542,0 0,199.434 -211.542,0 L 24.41,0 z"
         id="path396" /></clipPath><clipPath
       clipPathUnits="userSpaceOnUse"
       id="clipPath406"><path
         d="m 235.473,0 211.683,0 0,199.434 -211.683,0 0,-199.434 z"
         id="path408" /></clipPath><clipPath
       clipPathUnits="userSpaceOnUse"
       id="clipPath418"><path
         d="M 446.676,0 594,0 l 0,130.56 -147.324,0 0,-130.56 z"
         id="path420" /></clipPath><clipPath
       clipPathUnits="userSpaceOnUse"
       id="clipPath430"><path
         d="m 24.41,612.807 569.59,0 0,3.78 -569.59,0 0,-3.78 z"
         id="path432" /></clipPath><clipPath
       clipPathUnits="userSpaceOnUse"
       id="clipPath442"><path
         d="M 18.2,616.587 18.218,0 l 6.192,0 0,616.587 -6.21,0 z"
         id="path444" /></clipPath><clipPath
       clipPathUnits="userSpaceOnUse"
       id="clipPath454"><path
         d="M 0,0 594,0 594,774 0,774 0,0 z"
         id="path456" /></clipPath><clipPath
       clipPathUnits="userSpaceOnUse"
       id="clipPath462"><path
         d="m -22.115,405.574 -211.926,0 0,207.581 211.926,0 0,-207.581 z"
         id="path464" /></clipPath><clipPath
       clipPathUnits="userSpaceOnUse"
       id="clipPath470"><path
         d="m -22.435,-8.031 -599.202,0 0,620.838 599.202,0 0,-620.838 z"
         id="path472" /></clipPath><clipPath
       clipPathUnits="userSpaceOnUse"
       id="clipPath478"><path
         d="m -621.637,-8.031 605.34,0 0.009,624.618 -605.349,0 0,-624.618 z"
         id="path480" /></clipPath><clipPath
       clipPathUnits="userSpaceOnUse"
       id="clipPath486"><path
         d="m -618.508,-6.754 1241.004,0 0,791.008 -1241.004,0 0,-791.008 z"
         id="path488" /></clipPath><clipPath
       clipPathUnits="userSpaceOnUse"
       id="clipPath494"><path
         d="m -22.108,405.534 -211.992,0 0,207.672 211.992,0 0,-207.672 z"
         id="path496" /></clipPath><clipPath
       clipPathUnits="userSpaceOnUse"
       id="clipPath506"><path
         d="M 0,0 594,0 594,774 0,774 0,0 z"
         id="path508" /></clipPath><clipPath
       clipPathUnits="userSpaceOnUse"
       id="clipPath514"><path
         d="m -233.561,405.574 -212.166,0 0,207.581 212.166,0 0,-207.581 z"
         id="path516" /></clipPath><clipPath
       clipPathUnits="userSpaceOnUse"
       id="clipPath522"><path
         d="m -22.435,-8.031 -599.202,0 0,620.838 599.202,0 0,-620.838 z"
         id="path524" /></clipPath><clipPath
       clipPathUnits="userSpaceOnUse"
       id="clipPath530"><path
         d="m -621.637,-8.031 605.34,0 0.009,624.618 -605.349,0 0,-624.618 z"
         id="path532" /></clipPath><clipPath
       clipPathUnits="userSpaceOnUse"
       id="clipPath538"><path
         d="m -618.508,-6.754 1241.004,0 0,791.008 -1241.004,0 0,-791.008 z"
         id="path540" /></clipPath><clipPath
       clipPathUnits="userSpaceOnUse"
       id="clipPath546"><path
         d="m -233.548,405.534 -212.232,0 0,207.672 212.232,0 0,-207.672 z"
         id="path548" /></clipPath><clipPath
       clipPathUnits="userSpaceOnUse"
       id="clipPath558"><path
         d="M 0,0 594,0 594,774 0,774 0,0 z"
         id="path560" /></clipPath><clipPath
       clipPathUnits="userSpaceOnUse"
       id="clipPath566"><path
         d="m -445.247,371.258 -176.645,0 0,241.897 176.645,0 0,-241.897 z"
         id="path568" /></clipPath><clipPath
       clipPathUnits="userSpaceOnUse"
       id="clipPath574"><path
         d="m -22.435,-8.031 -599.202,0 0,620.838 599.202,0 0,-620.838 z"
         id="path576" /></clipPath><clipPath
       clipPathUnits="userSpaceOnUse"
       id="clipPath582"><path
         d="m -621.637,-8.031 605.34,0 0.009,624.618 -605.349,0 0,-624.618 z"
         id="path584" /></clipPath><clipPath
       clipPathUnits="userSpaceOnUse"
       id="clipPath590"><path
         d="m -618.508,-6.754 1241.004,0 0,791.008 -1241.004,0 0,-791.008 z"
         id="path592" /></clipPath><clipPath
       clipPathUnits="userSpaceOnUse"
       id="clipPath598"><path
         d="m -445.228,371.214 -176.712,0 0,241.992 176.712,0 0,-241.992 z"
         id="path600" /></clipPath><clipPath
       clipPathUnits="userSpaceOnUse"
       id="clipPath610"><path
         d="M 0,0 594,0 594,774 0,774 0,0 z"
         id="path612" /></clipPath><clipPath
       clipPathUnits="userSpaceOnUse"
       id="clipPath618"><path
         d="m -22.115,198.714 -211.926,0 0,207.34 211.926,0 0,-207.34 z"
         id="path620" /></clipPath><clipPath
       clipPathUnits="userSpaceOnUse"
       id="clipPath626"><path
         d="m -22.435,-8.031 -599.202,0 0,620.838 599.202,0 0,-620.838 z"
         id="path628" /></clipPath><clipPath
       clipPathUnits="userSpaceOnUse"
       id="clipPath634"><path
         d="m -621.637,-8.031 605.34,0 0.009,624.618 -605.349,0 0,-624.618 z"
         id="path636" /></clipPath><clipPath
       clipPathUnits="userSpaceOnUse"
       id="clipPath642"><path
         d="m -618.508,-6.754 1241.004,0 0,791.008 -1241.004,0 0,-791.008 z"
         id="path644" /></clipPath><clipPath
       clipPathUnits="userSpaceOnUse"
       id="clipPath650"><path
         d="m -22.108,198.654 -211.992,0 0,207.432 211.992,0 0,-207.432 z"
         id="path652" /></clipPath><clipPath
       clipPathUnits="userSpaceOnUse"
       id="clipPath662"><path
         d="M 0,0 594,0 594,774 0,774 0,0 z"
         id="path664" /></clipPath><clipPath
       clipPathUnits="userSpaceOnUse"
       id="clipPath670"><path
         d="m -233.561,198.714 -212.166,0 0,207.34 212.166,0 0,-207.34 z"
         id="path672" /></clipPath><clipPath
       clipPathUnits="userSpaceOnUse"
       id="clipPath678"><path
         d="m -233.548,198.654 -212.232,0 0,207.432 212.232,0 0,-207.432 z"
         id="path680" /></clipPath><clipPath
       clipPathUnits="userSpaceOnUse"
       id="clipPath690"><path
         d="M 0,0 594,0 594,774 0,774 0,0 z"
         id="path692" /></clipPath><clipPath
       clipPathUnits="userSpaceOnUse"
       id="clipPath698"><path
         d="m -445.247,129.6 -176.645,0 0,242.138 176.645,0 0,-242.138 z"
         id="path700" /></clipPath><clipPath
       clipPathUnits="userSpaceOnUse"
       id="clipPath706"><path
         d="m -22.435,-8.031 -599.202,0 0,620.838 599.202,0 0,-620.838 z"
         id="path708" /></clipPath><clipPath
       clipPathUnits="userSpaceOnUse"
       id="clipPath714"><path
         d="m -621.637,-8.031 605.34,0 0.009,624.618 -605.349,0 0,-624.618 z"
         id="path716" /></clipPath><clipPath
       clipPathUnits="userSpaceOnUse"
       id="clipPath722"><path
         d="m -618.508,-6.754 1241.004,0 0,791.008 -1241.004,0 0,-791.008 z"
         id="path724" /></clipPath><clipPath
       clipPathUnits="userSpaceOnUse"
       id="clipPath730"><path
         d="m -445.228,129.594 -176.712,0 0,242.172 176.712,0 0,-242.172 z"
         id="path732" /></clipPath><clipPath
       clipPathUnits="userSpaceOnUse"
       id="clipPath742"><path
         d="M 0,0 594,0 594,774 0,774 0,0 z"
         id="path744" /></clipPath><clipPath
       clipPathUnits="userSpaceOnUse"
       id="clipPath750"><path
         d="m -22.115,-8.387 -211.926,0 0,207.581 211.926,0 0,-207.581 z"
         id="path752" /></clipPath><clipPath
       clipPathUnits="userSpaceOnUse"
       id="clipPath758"><path
         d="m -22.435,-8.031 -599.202,0 0,620.838 599.202,0 0,-620.838 z"
         id="path760" /></clipPath><clipPath
       clipPathUnits="userSpaceOnUse"
       id="clipPath766"><path
         d="m -621.637,-8.031 605.34,0 0.009,624.618 -605.349,0 0,-624.618 z"
         id="path768" /></clipPath><clipPath
       clipPathUnits="userSpaceOnUse"
       id="clipPath774"><path
         d="m -618.508,-6.754 1241.004,0 0,791.008 -1241.004,0 0,-791.008 z"
         id="path776" /></clipPath><clipPath
       clipPathUnits="userSpaceOnUse"
       id="clipPath782"><path
         d="m -22.108,-8.406 -211.992,0 0,207.612 211.992,0 0,-207.612 z"
         id="path784" /></clipPath><clipPath
       clipPathUnits="userSpaceOnUse"
       id="clipPath794"><path
         d="M 0,0 594,0 594,774 0,774 0,0 z"
         id="path796" /></clipPath><clipPath
       clipPathUnits="userSpaceOnUse"
       id="clipPath802"><path
         d="m -233.561,-8.387 -212.166,0 0,207.581 212.166,0 0,-207.581 z"
         id="path804" /></clipPath><clipPath
       clipPathUnits="userSpaceOnUse"
       id="clipPath810"><path
         d="m -22.435,-8.031 -599.202,0 0,620.838 599.202,0 0,-620.838 z"
         id="path812" /></clipPath><clipPath
       clipPathUnits="userSpaceOnUse"
       id="clipPath818"><path
         d="m -621.637,-8.031 605.34,0 0.009,624.618 -605.349,0 0,-624.618 z"
         id="path820" /></clipPath><clipPath
       clipPathUnits="userSpaceOnUse"
       id="clipPath826"><path
         d="m -618.508,-6.754 1241.004,0 0,791.008 -1241.004,0 0,-791.008 z"
         id="path828" /></clipPath><clipPath
       clipPathUnits="userSpaceOnUse"
       id="clipPath834"><path
         d="m -233.548,-8.406 -212.232,0 0,207.612 212.232,0 0,-207.612 z"
         id="path836" /></clipPath><clipPath
       clipPathUnits="userSpaceOnUse"
       id="clipPath846"><path
         d="M 0,0 594,0 594,774 0,774 0,0 z"
         id="path848" /></clipPath><clipPath
       clipPathUnits="userSpaceOnUse"
       id="clipPath854"><path
         d="m -445.247,-8.387 -176.645,0 0,138.467 176.645,0 0,-138.467 z"
         id="path856" /></clipPath><clipPath
       clipPathUnits="userSpaceOnUse"
       id="clipPath862"><path
         d="m -22.435,-8.031 -599.202,0 0,620.838 599.202,0 0,-620.838 z"
         id="path864" /></clipPath><clipPath
       clipPathUnits="userSpaceOnUse"
       id="clipPath870"><path
         d="m -621.637,-8.031 605.34,0 0.009,624.618 -605.349,0 0,-624.618 z"
         id="path872" /></clipPath><clipPath
       clipPathUnits="userSpaceOnUse"
       id="clipPath878"><path
         d="m -618.508,-6.754 1241.004,0 0,791.008 -1241.004,0 0,-791.008 z"
         id="path880" /></clipPath><clipPath
       clipPathUnits="userSpaceOnUse"
       id="clipPath886"><path
         d="m -445.228,-8.406 -176.712,0 0,138.492 176.712,0 0,-138.492 z"
         id="path888" /></clipPath><clipPath
       clipPathUnits="userSpaceOnUse"
       id="clipPath898"><path
         d="M 0,0 594,0 594,774 0,774 0,0 z"
         id="path900" /></clipPath><clipPath
       clipPathUnits="userSpaceOnUse"
       id="clipPath906"><path
         d="m -22.435,612.807 -599.202,0 0,3.78 599.202,0 0,-3.78 z"
         id="path908" /></clipPath><clipPath
       clipPathUnits="userSpaceOnUse"
       id="clipPath914"><path
         d="m -621.637,-8.031 605.34,0 0.009,624.618 -605.349,0 0,-624.618 z"
         id="path916" /></clipPath><clipPath
       clipPathUnits="userSpaceOnUse"
       id="clipPath922"><path
         d="m -618.508,-6.754 1241.004,0 0,791.008 -1241.004,0 0,-791.008 z"
         id="path924" /></clipPath><clipPath
       clipPathUnits="userSpaceOnUse"
       id="clipPath930"><path
         d="m -22.108,612.654 -599.832,0 0,4.152 599.832,0 0,-4.152 z"
         id="path932" /></clipPath><clipPath
       clipPathUnits="userSpaceOnUse"
       id="clipPath942"><path
         d="M 0,0 594,0 594,774 0,774 0,0 z"
         id="path944" /></clipPath><clipPath
       clipPathUnits="userSpaceOnUse"
       id="clipPath950"><path
         d="m -16.297,-8.031 -6.138,0 0,624.618 6.147,0 -0.009,-624.618 z"
         id="path952" /></clipPath><clipPath
       clipPathUnits="userSpaceOnUse"
       id="clipPath958"><path
         d="m -621.637,-8.031 605.34,0 0.009,624.618 -605.349,0 0,-624.618 z"
         id="path960" /></clipPath><clipPath
       clipPathUnits="userSpaceOnUse"
       id="clipPath966"><path
         d="m -618.508,-6.754 1241.004,0 0,791.008 -1241.004,0 0,-791.008 z"
         id="path968" /></clipPath><clipPath
       clipPathUnits="userSpaceOnUse"
       id="clipPath974"><path
         d="m -16.108,-8.406 -6.552,0 0,625.212 6.552,0 0,-625.212 z"
         id="path976" /></clipPath><clipPath
       clipPathUnits="userSpaceOnUse"
       id="clipPath986"><path
         d="M 0,0 594,0 594,774 0,774 0,0 z"
         id="path988" /></clipPath></defs><sodipodi:namedview
     pagecolor="#ffffff"
     bordercolor="#666666"
     borderopacity="1"
     objecttolerance="10"
     gridtolerance="10"
     guidetolerance="10"
     inkscape:pageopacity="0"
     inkscape:pageshadow="2"
     inkscape:window-width="1037"
     inkscape:window-height="673"
     id="namedview4"
     showgrid="false"
     inkscape:zoom="0.85621491"
     inkscape:cx="110.87063"
     inkscape:cy="-38.572419"
     inkscape:window-x="0"
     inkscape:window-y="0"
     inkscape:window-maximized="0"
     inkscape:current-layer="g12" /><g
     id="g12"
     inkscape:groupmode="layer"
     inkscape:label="IDBI_bank"
     transform="matrix(1.25,0,0,-1.25,704.51625,853.02)"><path
       d="m -563.613,645.548 177.393,0 0,36.868 -177.393,0 0,-36.868 z"
       style="fill:#00836c;fill-opacity:1;fill-rule:nonzero;stroke:none"
       id="path148" /><path
       id="path160"
       style="fill:#ffffff;fill-opacity:1;fill-rule:nonzero;stroke:none"
       d="m -518.969,663.9839 c 0,-10.26 -8.313,-18.576 -18.575,-18.576 -10.256,0 -18.572,8.316 -18.572,18.576 0,10.252 8.316,18.572 18.572,18.572 10.262,0 18.575,-8.32 18.575,-18.572" /><path
       id="path164"
       d="m -512.54,657.5699 c -0.0161,0.81231 0.0176,1.62137 0.054,2.42799 -0.006,3.07035 0.0121,6.14332 -0.009,9.21202 -0.0933,0.79735 -0.008,1.61529 -0.08,2.41099 -0.0314,0.58507 -0.0238,1.18226 -0.049,1.771 -0.0621,0.20738 -0.0355,0.4358 -0.079,0.658 -0.10426,0.31177 0.0945,0.34179 0.358,0.27 0.88899,0.004 1.76375,-0.0464 2.65497,-0.031 0.58341,0.0518 1.1891,0.007 1.77303,0.054 0.0183,-0.41802 -0.0597,-0.80835 -0.063,-1.22 -0.0537,-0.62837 -0.0862,-1.29155 -0.079,-1.944 -0.0315,-0.52417 -0.0298,-1.06095 -0.036,-1.59099 -0.0114,-1.53468 -0.0462,-3.06674 -0.0407,-4.60284 -0.0176,-1.54851 0.0129,-3.09759 0.0137,-4.64617 0.0415,-0.93709 0.0123,-1.88068 0.044,-2.81799 0.013,-0.76365 0.0343,-1.52719 0.079,-2.28701 0.0317,-0.44367 0.0896,-0.87792 0.082,-1.332 -0.34223,0.0252 -0.70262,0.0193 -1.029,0.058 -0.80813,0.01 -1.62256,0.0422 -2.43099,0 -0.38015,0.0173 -0.72687,-0.0525 -1.10901,-0.037 -0.31002,-0.13569 -0.21691,0.14352 -0.217,0.354 0.0488,0.23222 0.0412,0.48473 0.079,0.72 0.038,0.66645 0.0112,1.34523 0.074,2.008 -6.3e-4,0.1887 -0.003,0.3771 0.01,0.565 z"
       style="fill:#ffffff;fill-opacity:1;fill-rule:nonzero;stroke:none" /><path
       id="path168"
       d="m -499.878,655.9249 c 0.95618,-0.10085 1.91531,-0.1566 2.89764,-0.133 1.16898,-0.0111 2.33661,0.23598 3.35136,0.809 0.76567,0.43124 1.43818,1.07417 1.909,1.828 0.29645,0.4055 0.50561,0.85753 0.7,1.322 0.35443,0.94592 0.59382,1.97015 0.671,2.995 0.10982,1.00039 0.11129,2.0311 0.052,3.041 -0.0587,0.94442 -0.25169,1.87964 -0.594,2.761 -0.28246,0.65045 -0.62974,1.27469 -1.129,1.791 -0.42125,0.48708 -0.95322,0.8826 -1.531,1.184 -0.38002,0.16162 -0.77707,0.36612 -1.197,0.451 -1.3499,0.3842 -2.77581,0.32918 -4.16519,0.256 -0.32335,-0.0115 -0.64387,-0.0432 -0.96481,-0.057 -0.0641,-4.16563 -0.0395,-8.33701 -0.044,-12.506 0.0436,-1.24602 0.003,-2.49646 0.044,-3.742 z m -4.452,1.44 c 0.0446,1.95198 0.0527,3.91008 0.046,5.867 0.0637,1.18156 -0.033,2.36639 0,3.55276 0.0153,1.82104 -0.0604,3.63332 -0.074,5.44524 -0.0736,0.49768 -0.0171,1.02327 -0.078,1.52 0.0114,0.16035 -0.23343,0.70625 0.106,0.564 0.5983,-0.0927 1.22462,-0.17397 1.852,-0.178 0.6985,-0.058 1.39999,-0.0743 2.118,-0.066 0.58675,0.081 1.22183,0.0618 1.82,0.119 0.9067,0.0338 1.78648,0.12411 2.691,0.131 0.98926,0.0635 2.0104,0.009 2.991,-0.164 0.70812,-0.10299 1.40953,-0.32191 2.08194,-0.55361 0.70071,-0.27488 1.36167,-0.63992 1.96906,-1.09939 0.78763,-0.6041 1.48255,-1.34951 1.98558,-2.19199 0.50872,-0.84709 0.86064,-1.78795 1.0609,-2.75908 0.17367,-0.63406 0.23865,-1.28751 0.28552,-1.94293 0.0688,-0.75486 0.0585,-1.52802 0.008,-2.28254 -0.0676,-0.5883 -0.0899,-1.19327 -0.23116,-1.77341 -0.10061,-0.51512 -0.22784,-1.02987 -0.40977,-1.51805 -0.31644,-1.01213 -0.84512,-1.947 -1.503,-2.778 -0.41829,-0.4646 -0.83484,-0.94062 -1.351,-1.306 -0.82705,-0.69745 -1.81416,-1.16995 -2.828,-1.535 -0.64443,-0.18589 -1.28689,-0.38964 -1.95781,-0.47219 -1.48043,-0.27453 -3.00331,-0.24193 -4.49138,-0.15281 -0.67271,0.011 -1.32659,0.0935 -2.00681,0.093 -0.92369,0.0901 -1.89342,0.16147 -2.80919,0.039 -0.49241,-0.0452 -0.97692,-0.0996 -1.45781,-0.199 0.0254,0.39368 0.11191,0.7748 0.109,1.17716 0.0284,0.82223 0.0529,1.63449 0.074,2.46384 z"
       style="fill:#ffffff;fill-opacity:1;fill-rule:nonzero;stroke:none" /><path
       id="path172"
       d="m -478.422,655.9579 c 0.64408,-0.0436 1.27896,-0.15113 1.947,-0.072 0.44036,0.0893 0.89563,0.17931 1.288,0.403 0.1892,0.0984 0.35846,0.22458 0.513,0.357 0.19036,0.13311 0.38268,0.35692 0.534,0.572 0.16577,0.1789 0.25666,0.45092 0.395,0.668 0.14081,0.35266 0.24451,0.74599 0.312,1.129 0.004,0.3951 0.0711,0.7658 0.061,1.16 -0.0987,0.25855 0.001,0.61086 -0.127,0.871 -0.0904,0.3897 -0.21412,0.77934 -0.465,1.104 -0.1153,0.19142 -0.2371,0.36746 -0.416,0.496 -0.1351,0.20105 -0.39841,0.31611 -0.581,0.475 -0.22561,0.064 -0.40267,0.23694 -0.645,0.259 -0.30419,0.0993 -0.62267,0.21699 -0.955,0.192 -0.44828,0.13851 -0.9679,0.0495 -1.44547,0.076 -0.42105,0.11727 -0.47253,-0.13504 -0.41553,-0.49582 0,-2.39806 0,-4.79612 0,-7.19418 z m 0,9.577 c 0.68579,-0.002 1.39092,-0.0335 2.033,0.162 0.3237,0.10534 0.69333,0.21261 0.991,0.435 0.32354,0.18713 0.56966,0.43509 0.806,0.715 0.22967,0.30962 0.42346,0.68062 0.533,1.069 0.0908,0.23242 0.12838,0.4944 0.154,0.74716 0.0467,0.42402 0.0966,0.8571 0,1.26642 -0.0196,0.29987 -0.0851,0.58057 -0.234,0.83342 -0.15488,0.37962 -0.41582,0.65614 -0.724,0.918 -0.26084,0.23103 -0.57624,0.33576 -0.897,0.492 -0.79584,0.22534 -1.67449,0.29676 -2.498,0.162 -0.32039,0.0127 -0.0988,-0.45897 -0.164,-0.67357 0,-2.04214 0,-4.08429 0,-6.12643 z m -4.343,-7.965 c 0.0142,1.2891 0.0198,2.58032 0.0372,3.8683 0.0323,1.76974 0.005,3.54633 0.0138,5.3187 -0.0534,0.84011 -0.0119,1.69403 -0.038,2.53898 -0.008,1.04015 -0.0211,2.07328 -0.067,3.10602 -0.0355,0.45746 -0.0299,0.89845 -0.09,1.32975 0.0313,0.19199 -0.10724,0.5146 0.025,0.61125 0.8822,-0.0216 1.76768,-0.0322 2.649,-0.054 1.01517,0.0614 2.05101,-4.3e-4 3.07168,0.0404 1.02103,-0.002 2.06276,0.0747 3.06781,-0.0907 0.39333,-0.0697 0.80041,-0.10765 1.16951,-0.25876 0.46295,-0.0988 0.87783,-0.30565 1.302,-0.508 0.23374,-0.17134 0.53371,-0.29916 0.761,-0.508 0.35911,-0.26864 0.70229,-0.62328 0.958,-1.031 0.23765,-0.36417 0.41167,-0.76813 0.498,-1.199 0.0874,-0.49005 0.13391,-1.00936 0.033,-1.50658 -0.044,-0.47381 -0.17007,-0.94999 -0.403,-1.36042 -0.19843,-0.4972 -0.55319,-0.92391 -0.929,-1.321 -0.34213,-0.33552 -0.74797,-0.60069 -1.13,-0.849 -0.37437,-0.21854 -0.80172,-0.3854 -1.223,-0.535 -0.22099,-0.0539 -0.45457,-0.11043 -0.669,-0.178 0.25534,-0.0346 0.49937,-0.12363 0.75,-0.19 0.32492,-0.0739 0.60619,-0.25438 0.929,-0.349 0.46889,-0.25852 0.92911,-0.4975 1.32182,-0.84335 0.47454,-0.36953 0.86285,-0.84323 1.17918,-1.35965 0.29875,-0.58295 0.53536,-1.23095 0.59,-1.903 0.1124,-0.90733 0.008,-1.86587 -0.3071,-2.7094 -0.17421,-0.50824 -0.4403,-0.97285 -0.7749,-1.3936 -0.25395,-0.30467 -0.52082,-0.61674 -0.84601,-0.83862 -0.39053,-0.35495 -0.86035,-0.60395 -1.32799,-0.84538 -0.57401,-0.2387 -1.15519,-0.41281 -1.76558,-0.525 -0.7555,-0.0928 -1.50495,-0.15355 -2.27222,-0.125 -1.03298,0.0353 -2.07665,0.0112 -3.10644,0.058 -0.69676,6.8e-4 -1.37317,0.0241 -2.06276,0 -0.45188,-0.0607 -0.9422,-0.0266 -1.40407,-0.058 -0.24151,-0.003 -0.0438,0.40882 -0.0839,0.59258 0.0397,0.42645 0.0713,0.84848 0.078,1.29742 0.0536,0.59098 0.0373,1.18679 0.066,1.778 z"
       style="fill:#ffffff;fill-opacity:1;fill-rule:nonzero;stroke:none" /><path
       id="path176"
       d="m -464.489,657.5699 c 0.0667,2.67639 0.0416,5.3561 0.047,8.0355 0.005,2.00638 -0.003,4.01518 -0.066,6.0155 -0.0498,0.37279 -0.008,0.7878 -0.051,1.16598 0.0117,0.34939 -0.0562,0.66572 -0.056,1.00402 -0.0362,0.172 -0.0445,0.39416 -0.035,0.552 0.53552,-0.028 1.07676,-0.0345 1.621,-0.029 0.47153,-0.0583 0.9968,-0.008 1.489,-0.025 0.4974,0.0597 1.01957,-0.002 1.51798,0.05 0.30164,0.0694 0.0746,-0.3035 0.14102,-0.47897 -0.0679,-0.42 -0.0565,-0.8506 -0.075,-1.29603 -0.057,-0.48386 -0.003,-0.99469 -0.048,-1.484 -0.0687,-0.45369 0.003,-0.94818 -0.038,-1.41599 -0.0128,-1.08446 -0.0375,-2.16833 -0.048,-3.25296 0.004,-2.49664 -0.0203,-4.99442 0.048,-7.48603 0.0175,-0.57929 -0.006,-1.16684 0.0269,-1.74189 0.067,-0.56227 -0.001,-1.16057 0.0701,-1.72412 -0.0244,-0.49643 0.0726,-0.94675 0.071,-1.43201 0.0624,-0.2556 -0.36379,-0.0446 -0.52456,-0.098 -0.35616,0.0212 -0.70996,0.0428 -1.07644,0.031 -0.50135,0.0473 -1.02224,0.006 -1.531,0.02 -0.29052,-0.0533 -0.6493,0.0138 -0.93099,-0.049 -0.24546,0.0171 -0.52594,-0.0484 -0.72701,-0.008 0.0243,0.35558 0.042,0.69812 0.085,1.033 0.0217,0.55072 0.0592,1.08778 0.048,1.645 0.0466,0.30407 0.0402,0.64916 0.042,0.969 z"
       style="fill:#ffffff;fill-opacity:1;fill-rule:nonzero;stroke:none" /><path
       id="path180"
       d="m -446.907,655.3409 c 0.47304,-0.008 0.942,0.0401 1.401,0.098 0.20937,0.097 0.47713,0.0568 0.688,0.182 0.20924,0.0633 0.39175,0.1793 0.571,0.314 0.29385,0.16281 0.48235,0.44903 0.64939,0.71173 0.0852,0.18228 0.15752,0.3599 0.21289,0.5472 0.16833,0.50708 0.13049,1.07241 0.13172,1.61407 -0.0258,0.21708 -0.0549,0.4441 -0.129,0.63617 -0.0279,0.23491 -0.17113,0.41986 -0.247,0.63783 -0.1583,0.20739 -0.2979,0.46525 -0.533,0.607 -0.13286,0.15236 -0.38332,0.25268 -0.568,0.365 -0.32231,0.14149 -0.64929,0.21619 -0.991,0.289 -0.27492,0.0702 -0.58573,0.0575 -0.882,0.096 -0.20099,0.0108 -0.5128,0.10309 -0.41,-0.21304 0.002,-1.62019 -0.0112,-3.24534 0.04,-4.85752 0.0156,-0.2605 -0.002,-0.54858 0.038,-0.77296 0.007,-0.0851 -0.0215,-0.19891 0.028,-0.25448 z m 3.525,10.356 c 0.0228,0.37213 -0.0197,0.7613 -0.143,1.086 -0.0731,0.22113 -0.19777,0.43173 -0.339,0.611 -0.13335,0.14533 -0.2897,0.27755 -0.444,0.371 -0.1794,0.0949 -0.32209,0.1958 -0.525,0.24 -0.21481,0.0796 -0.45628,0.12056 -0.68817,0.172 -0.43047,0.0847 -0.88418,0.0799 -1.33183,0.074 -0.0728,-0.25718 -0.0467,-0.56138 -0.054,-0.851 -0.0668,-0.19948 -0.042,-0.4519 -0.066,-0.68117 -0.0441,-1.31073 -0.0414,-2.63212 -0.04,-3.94983 0.4247,-0.0111 0.84173,0.0278 1.257,0.053 0.25961,0.0711 0.5479,0.0518 0.794,0.158 0.24287,0.0592 0.42433,0.18381 0.613,0.361 0.11306,0.10808 0.21847,0.22715 0.327,0.379 0.24145,0.31685 0.33066,0.69646 0.46826,1.05903 0.0454,0.30722 0.17233,0.60443 0.17174,0.91797 z m -1.294,-3.473 c 0.58672,-0.0409 1.18372,-0.0471 1.76235,-0.146 0.28913,-0.02 0.53481,-0.12648 0.81465,-0.178 0.18302,-0.0608 0.36872,-0.1169 0.54217,-0.19891 0.21694,-0.0818 0.41378,-0.20687 0.62783,-0.31109 0.14608,-0.15939 0.34464,-0.27317 0.48215,-0.42889 0.15755,-0.1621 0.27039,-0.34622 0.39585,-0.53811 0.0622,-0.14593 0.14506,-0.31251 0.1959,-0.46794 0.0715,-0.23894 0.138,-0.48949 0.1771,-0.74106 0.0787,-0.54013 0.0668,-1.11233 0.016,-1.66 -0.0708,-0.31901 -0.12244,-0.64819 -0.25163,-0.94546 -0.10824,-0.2259 -0.17445,-0.48735 -0.36237,-0.65754 -0.17987,-0.35436 -0.50592,-0.6074 -0.788,-0.875 -0.28309,-0.19651 -0.58311,-0.37364 -0.88817,-0.512 -0.21376,-0.0683 -0.40083,-0.2068 -0.62783,-0.223 -0.19014,-0.10219 -0.41713,-0.11212 -0.62308,-0.1816 -0.32265,-0.0324 -0.6397,-0.1452 -0.9744,-0.13963 -1.25381,-0.0536 -2.51442,-0.009 -3.7709,-0.0238 -0.86852,0.005 -1.75577,-0.009 -2.61262,0.007 0.0288,0.29064 0.0613,0.56639 0.068,0.868 0.0613,0.4109 0.0124,0.85814 0.078,1.26535 0.036,1.37947 0.0173,2.76746 0.019,4.15265 -0.0438,0.53161 0.003,1.07917 -0.06,1.611 0.008,0.96847 -0.0282,1.92953 -0.05,2.89456 0.01,0.67422 -0.027,1.33979 -0.04,2.00817 0.003,0.94595 -0.0178,1.88961 -0.015,2.83527 0.78196,-0.0104 1.56253,-0.0594 2.34434,-0.0589 0.5776,-0.004 1.15108,-0.0349 1.72821,-0.0441 0.98829,-0.0264 1.99087,0.0377 2.96345,-0.12901 0.28422,-0.0749 0.6013,-0.0886 0.86984,-0.21705 0.35961,-0.0859 0.71613,-0.24746 1.02816,-0.43595 0.17285,-0.0561 0.32827,-0.21135 0.4865,-0.30627 0.24034,-0.16802 0.39107,-0.40074 0.6075,-0.59773 0.0664,-0.18485 0.21113,-0.33112 0.27,-0.523 0.10096,-0.16407 0.14208,-0.3579 0.19522,-0.52771 0.0808,-0.33933 0.0966,-0.72499 0.0858,-1.09529 -0.051,-0.20184 -0.0278,-0.40774 -0.114,-0.59517 -0.0374,-0.22051 -0.14848,-0.43762 -0.26257,-0.64261 -0.10462,-0.24615 -0.27348,-0.43596 -0.44143,-0.63722 -0.0871,-0.13611 -0.24193,-0.22571 -0.345,-0.35 -0.19542,-0.10328 -0.37887,-0.28544 -0.58403,-0.36626 -0.15977,-0.1072 -0.35061,-0.22205 -0.55397,-0.26674 -0.159,-0.10495 -0.34667,-0.15651 -0.53772,-0.20488 -0.25377,-0.0699 -0.51786,-0.17117 -0.79028,-0.19312 -0.34575,-0.0922 -0.70694,-0.11989 -1.065,-0.151 l 0,-0.0382 0,-0.0338 0,0 z"
       style="fill:#ffffff;fill-opacity:1;fill-rule:nonzero;stroke:none" /><path
       id="path184"
       d="m -430.276,660.0419 c -0.0766,0.28353 -0.1486,0.59381 -0.315,0.85 -0.0237,0.19604 -0.14904,0.33302 -0.179,0.525 -0.0624,0.17959 -0.11265,0.34742 -0.188,0.518 -0.10154,0.32396 -0.21989,0.6159 -0.309,0.928 -0.11534,0.26394 -0.18733,0.54275 -0.339,0.779 -0.0167,0.20568 -0.1918,0.32658 -0.188,0.543 -0.13623,0.25336 -0.23132,0.53109 -0.33,0.791 -0.0974,0.10117 -0.11045,0.48035 -0.21311,0.18856 -0.0548,-0.16165 -0.14209,-0.27085 -0.21589,-0.42256 -0.14499,-0.33107 -0.29005,-0.6625 -0.422,-1.012 -0.1067,-0.15499 -0.10736,-0.36899 -0.212,-0.51 -0.0366,-0.21745 -0.15583,-0.38292 -0.195,-0.609 -0.13044,-0.22956 -0.21272,-0.50169 -0.303,-0.73283 -0.11643,-0.29704 -0.24132,-0.60136 -0.321,-0.91417 -0.0878,-0.15919 -0.12925,-0.35247 -0.189,-0.527 -0.008,-0.11855 -0.22372,-0.42578 0.0725,-0.355 0.40272,-0.0223 0.81885,-0.0568 1.25121,-0.04 0.8651,0 1.73021,0 2.59531,0 z m 6.044,-5.97 c -0.68124,0.0153 -1.34217,-0.0374 -2.02,-0.03 -0.62691,-0.0234 -1.26497,-0.0423 -1.901,-0.046 -0.0763,0.23804 -0.13246,0.46529 -0.203,0.689 -0.0583,0.20305 -0.10584,0.35091 -0.159,0.541 -0.19214,0.43706 -0.33533,0.91439 -0.459,1.37681 -0.0844,0.3373 -0.21735,0.65668 -0.304,0.99419 -0.0656,0.21372 -0.13768,0.41033 -0.209,0.619 -0.0565,0.12066 -0.10296,0.29997 -0.19883,0.35 -1.76605,0 -3.53211,0 -5.29817,0 -0.10281,-0.22689 -0.18877,-0.49426 -0.24924,-0.73604 -0.21354,-0.52484 -0.41748,-1.0708 -0.58276,-1.61596 -0.19867,-0.50285 -0.32062,-1.04832 -0.53742,-1.54049 -0.0652,-0.22732 -0.14615,-0.45257 -0.23358,-0.67751 -0.48123,0.0179 -0.95299,0.0528 -1.441,0.046 -0.12516,0.0901 -0.54455,-0.0505 -0.538,0.077 0.0348,0.12578 0.11727,0.28994 0.175,0.433 0.17463,0.39917 0.34331,0.84618 0.51445,1.24959 0.15864,0.44438 0.37015,0.88994 0.53455,1.35441 0.22292,0.42138 0.34576,0.8818 0.547,1.316 0.19529,0.5025 0.41786,0.98697 0.62266,1.4783 0.10463,0.38788 0.30057,0.75857 0.43227,1.13187 0.15952,0.30157 0.21441,0.63807 0.39807,0.92683 0.17493,0.4387 0.31827,0.92672 0.52604,1.37171 0.17996,0.43917 0.33746,0.88635 0.55015,1.30328 0.12386,0.37582 0.25747,0.73937 0.40581,1.10501 0.2461,0.65714 0.55616,1.28861 0.77644,1.95595 0.10415,0.35124 0.28064,0.68511 0.37156,1.05305 0.16698,0.33493 0.29999,0.6923 0.44898,1.03352 0.0791,0.1021 0.25583,-0.0471 0.39885,-0.0275 0.40262,-0.0368 0.83083,-0.002 1.22717,0.053 0.47091,-0.22634 0.47755,-1.24193 0.78947,-1.74442 0.27617,-0.66206 0.57775,-1.31676 0.7942,-2.00476 0.18484,-0.43613 0.30971,-0.89616 0.54908,-1.30151 0.23706,-0.67334 0.49936,-1.33118 0.75655,-1.99527 0.0763,-0.24472 0.26018,-0.43913 0.29652,-0.69789 0.14024,-0.35395 0.25905,-0.71698 0.40084,-1.07374 0.15647,-0.40686 0.28882,-0.81489 0.48645,-1.16331 0.1788,-0.44459 0.35267,-0.9136 0.52689,-1.3761 0.11192,-0.29022 0.21283,-0.60947 0.36721,-0.88732 0.26393,-0.41812 0.32669,-0.91364 0.55679,-1.35368 0.0952,-0.32158 0.21985,-0.62573 0.337,-0.898 0.0697,-0.16615 0.11634,-0.31896 0.221,-0.432 0.0963,-0.23424 0.18226,-0.50059 0.273,-0.728 -0.002,-0.0429 0.0784,-0.0716 0.05,-0.129 z"
       style="fill:#ffffff;fill-opacity:1;fill-rule:nonzero;stroke:none" /><path
       id="path188"
       d="m -408.999,669.6379 c -0.0394,-0.38988 -0.0767,-0.77393 -0.102,-1.16336 -0.0246,-0.51134 -0.0715,-1.01721 -0.093,-1.52816 -0.0531,-0.97006 -0.0735,-1.93869 -0.067,-2.91548 -0.0738,-0.79367 -0.0173,-1.61612 -0.035,-2.422 0.0812,-0.94441 4.5e-4,-1.90683 0.069,-2.8522 0.006,-0.85844 0.0784,-1.70863 0.103,-2.56168 0.002,-0.54918 0.0304,-1.09693 0.065,-1.63816 -0.02,-0.17486 0.0361,-0.45013 0,-0.56096 -0.38606,0.0192 -0.70464,0.0991 -1.11072,0.076 -0.32871,0.0317 -0.57726,-0.0541 -0.87228,-0.076 -0.15652,0.1 -0.22929,0.30806 -0.393,0.42 -0.14575,0.15435 -0.24851,0.32791 -0.405,0.455 -0.0889,0.17878 -0.27241,0.26463 -0.363,0.435 -0.3747,0.41274 -0.76085,0.83865 -1.12645,1.27469 -0.2107,0.23137 -0.42188,0.44282 -0.61118,0.68269 -0.2252,0.18997 -0.35111,0.45937 -0.58219,0.65196 -0.3495,0.36209 -0.6728,0.73601 -1.00232,1.11444 -0.17284,0.12256 -0.26614,0.3259 -0.43086,0.44822 -0.15462,0.19668 -0.35874,0.36122 -0.493,0.586 -0.4052,0.33853 -0.71049,0.75025 -1.07656,1.14646 -0.30154,0.25955 -0.55236,0.56962 -0.79544,0.86754 -0.17002,0.20863 -0.41353,0.35115 -0.55555,0.58229 -0.24183,0.19301 -0.39872,0.47362 -0.62907,0.6849 -0.38357,0.3169 -0.68881,0.72508 -1.01553,1.09499 -0.19692,0.11337 -0.3158,0.31212 -0.47585,0.46382 0.003,-2.44895 -0.0115,-4.90149 0.0223,-7.34728 0.0247,-1.04509 0.0712,-2.0906 0.0607,-3.14072 0.0347,-0.15816 0.12076,-0.53561 -0.142,-0.413 -0.33504,0.0684 -0.67175,0.078 -1.05552,0.065 -0.25571,-0.0349 -0.49538,-0.055 -0.76748,-0.072 0,5.214 0,10.428 0,15.642 0.41331,0.0256 0.72534,-0.0524 1.097,-0.068 0.25542,-0.0667 0.59695,-0.0659 0.868,-0.02 0.20812,0.0237 0.38938,0.04 0.596,0.088 0.26813,-0.36089 0.59114,-0.67248 0.898,-0.996 0.5424,-0.66873 1.14777,-1.28235 1.70669,-1.93599 0.47073,-0.437 0.82502,-0.97865 1.29336,-1.41972 0.39639,-0.47126 0.84649,-0.89626 1.23997,-1.36688 0.41915,-0.51197 0.9086,-0.96153 1.32026,-1.4783 0.49339,-0.46586 0.88503,-1.02537 1.37457,-1.498 0.48351,-0.56772 0.99324,-1.10804 1.48615,-1.66811 0.22873,-0.39875 0.12096,0.18113 0.13998,0.36373 -0.0225,1.27744 -0.004,2.55654 -0.05,3.83231 -0.0427,1.57343 0.01,3.15242 -0.0557,4.72482 -0.029,0.46196 -0.004,0.92773 -0.0123,1.39114 0.32162,-0.0696 0.6781,-0.10792 1.08408,-0.093 0.33138,0.0162 0.60054,0.0376 0.89392,0.144 z"
       style="fill:#ffffff;fill-opacity:1;fill-rule:nonzero;stroke:none" /><path
       id="path192"
       d="m -392.86,653.996 c -1.45233,0 -2.90467,0 -4.357,0 -0.28501,0.41131 -0.54466,0.82503 -0.811,1.246 -0.28138,0.4218 -0.55457,0.85166 -0.8346,1.27211 -0.18289,0.27252 -0.34764,0.57466 -0.5574,0.83289 -0.153,0.30538 -0.4013,0.56121 -0.54,0.869 -0.22601,0.28827 -0.41663,0.60124 -0.634,0.909 -0.13454,0.18166 -0.27382,0.39262 -0.40496,0.59369 -0.1641,0.21514 -0.29474,0.46674 -0.48304,0.67931 -0.10602,0.19596 -0.27947,0.37354 -0.394,0.566 0.002,-1.76555 -0.0112,-3.53401 0.012,-5.297 0.0967,-0.29097 -0.0203,-0.65153 0.072,-0.949 0.0188,-0.23695 0.0371,-0.48772 0.081,-0.722 -0.36566,0.003 -0.70013,0.0537 -1.065,0.046 -0.34787,0.0591 -0.72624,0.0143 -1.09044,0.03 -0.30643,-0.002 -0.6138,0.005 -0.91956,-0.004 -0.20946,-0.0562 -0.4703,-0.058 -0.72,-0.072 4.4e-4,1.30797 -0.008,2.61723 0.02,3.92066 0.02,1.12894 0.0211,2.25983 0.0381,3.38775 0.0732,0.69964 0.0112,1.41404 0.0589,2.11674 0.0104,1.69631 0.0321,3.39781 -0.028,5.08985 -0.0857,0.2584 -0.0238,0.57188 -0.069,0.84646 -0.0675,0.23969 0.0125,0.32902 0.24046,0.24554 0.46301,-0.073 0.95067,-0.10907 1.42954,-0.137 0.44575,-0.0592 0.90897,0.0271 1.366,0.028 0.25518,0.0378 0.52535,0.0396 0.776,0.093 -0.045,-0.38522 -0.0942,-0.77111 -0.085,-1.183 -0.0634,-0.19693 -0.0208,-0.42822 -0.064,-0.63469 -0.017,-0.5266 0.0208,-1.07131 -0.0285,-1.58668 -0.0388,-1.23129 -0.0214,-2.47962 -0.0255,-3.71863 0.14916,0.21828 0.33371,0.37201 0.51102,0.57536 0.239,0.28836 0.47037,0.58238 0.72438,0.85407 0.29489,0.36738 0.64376,0.72085 0.9146,1.11957 0.25727,0.22435 0.41819,0.50975 0.654,0.752 0.18604,0.24989 0.40647,0.49299 0.60402,0.73632 0.20372,0.28142 0.44886,0.53485 0.63998,0.82468 0.19425,0.21018 0.34903,0.43642 0.52304,0.66159 0.14011,0.19726 0.32266,0.3755 0.44596,0.59241 0.13448,0.12546 0.25021,0.30756 0.35365,0.46115 0.17931,0.15558 0.26507,0.43675 0.46435,0.54585 0.3514,-0.0762 0.78917,-0.0605 1.16369,-0.093 0.46481,0.0107 1.00465,-0.0383 1.39831,0.076 0.35049,0.0975 0.0532,-0.15759 -0.079,-0.283 -0.30336,-0.36638 -0.62457,-0.71123 -0.94686,-1.06181 -0.27657,-0.2633 -0.51196,-0.56344 -0.78221,-0.83552 -0.32967,-0.3912 -0.70047,-0.76008 -1.02756,-1.13769 -0.37268,-0.36671 -0.69696,-0.79122 -1.07337,-1.15898 -0.44885,-0.47319 -0.87621,-0.96244 -1.32877,-1.4337 -0.16605,-0.20532 -0.37737,-0.36882 -0.53123,-0.5853 0.29769,-0.49223 0.67051,-0.93739 0.984,-1.424 0.61642,-0.83608 1.17398,-1.71325 1.79265,-2.54624 0.17461,-0.24804 0.35535,-0.49109 0.52942,-0.73918 0.18993,-0.27404 0.38676,-0.54643 0.59793,-0.81058 0.30484,-0.49214 0.66502,-0.94495 0.971,-1.439 0.29065,-0.33986 0.51096,-0.73287 0.78315,-1.0936 0.25072,-0.33745 0.4748,-0.69017 0.73085,-1.0254 z"
       style="fill:#ffffff;fill-opacity:1;fill-rule:nonzero;stroke:none" /><path
       id="path196"
       d="m -537.679,650.0819 c 1.74729,-0.003 3.50335,0.47087 4.97872,1.41564 0.8932,0.51784 1.68973,1.2116 2.34267,2.01065 0.43391,0.4656 0.7463,1.01606 1.08061,1.55371 0.55453,1.07637 0.96527,2.23816 1.07775,3.4505 0.16149,1.35237 0.0318,2.73794 -0.35925,4.04026 -0.28654,0.98975 -0.74069,1.9271 -1.3134,2.7829 -0.78823,1.16323 -1.80564,2.19154 -3.0221,2.89834 -0.2739,0.17113 -0.50912,0.34349 -0.78602,0.51222 -0.40751,0.28194 -1.06643,0.6355 -1.54998,0.25878 -0.49144,-0.48372 -0.4684,-1.24564 -0.511,-1.89534 -0.003,-4.59862 -0.0245,-9.19671 -0.015,-13.79566 -0.0286,-0.38605 0.091,-0.85402 -0.305,-1.08 -0.40958,-0.24856 -0.86926,-0.41069 -1.348,-0.486 -0.39261,-0.11243 -0.76319,0.0578 -1.146,0.13 -0.32694,0.11336 -0.68333,0.25515 -0.922,0.483 -0.34639,0.30535 -0.13831,0.84417 -0.195,1.27209 -0.006,4.70378 0.0121,9.40858 -0.009,14.11172 -0.0686,0.50495 -0.12403,1.12263 -0.59574,1.42419 -0.21825,0.11115 -0.46134,0.096 -0.685,0.002 -0.53502,-0.15653 -0.98964,-0.60914 -1.44307,-0.87795 -0.78884,-0.46416 -1.51616,-1.03903 -2.12924,-1.7255 -0.54171,-0.54696 -0.97127,-1.1894 -1.36769,-1.84955 -0.56599,-1.03011 -0.9973,-2.13833 -1.19275,-3.3004 -0.19808,-1.07352 -0.21806,-2.17669 -0.0493,-3.25745 0.25456,-1.64534 0.966,-3.21471 1.99996,-4.5154 1.02304,-1.30289 2.4294,-2.25906 3.94513,-2.90675 1.12337,-0.41505 2.3169,-0.67112 3.52,-0.656 z"
       style="fill:#f58220;fill-opacity:1;fill-rule:nonzero;stroke:none" /><path
       id="path200"
       d="m -537.6429,671.626 c 0.12897,0.005 0.26224,-0.0141 0.3864,0.018 0.0788,0.005 0.14928,0.0637 0.2326,0.049 0.0534,0.043 0.11333,0.0875 0.18181,0.09 0.0627,0.0387 0.1604,0.0247 0.19219,0.109 0.0689,0.0241 0.12511,0.0636 0.18753,0.0985 0.0598,0.0291 0.10397,0.0918 0.16063,0.13069 0.0877,0.0374 0.11601,0.13726 0.20027,0.17985 0.043,0.0535 0.0809,0.11062 0.13557,0.156 0.0539,0.0794 0.10902,0.15598 0.141,0.248 0.055,0.0425 0.0645,0.11795 0.10191,0.1754 0.029,0.064 0.0672,0.12041 0.0814,0.18867 0.0284,0.0593 0.055,0.11994 0.0467,0.18793 0.0312,0.0823 0.009,0.17765 0.067,0.252 -0.004,0.18999 0.008,0.38429 -0.006,0.57158 -0.0618,0.0785 -0.0312,0.18135 -0.0609,0.27062 -0.009,0.065 -0.0221,0.13462 -0.0619,0.18765 -0.0475,0.18414 -0.16842,0.33579 -0.25352,0.50184 -0.0419,0.0557 -0.0638,0.11369 -0.12484,0.15137 -0.0582,0.0816 -0.14557,0.1364 -0.19175,0.22694 -0.0839,0.005 -0.12607,0.0913 -0.19076,0.13263 -0.0451,0.0475 -0.11599,0.0678 -0.16574,0.1067 -0.0601,0.0245 -0.0899,0.0877 -0.16519,0.0852 -0.10622,0.0449 -0.20886,0.11138 -0.32631,0.13251 -0.0643,0.0308 -0.11798,0.074 -0.19462,0.055 -0.084,0.002 -0.16592,0.0202 -0.25042,0.0202 -0.14472,0.0173 -0.29164,-0.002 -0.4354,-0.008 -0.0878,-0.0326 -0.19336,0.0188 -0.26975,-0.0516 -0.0924,-0.045 -0.19634,-0.0498 -0.28481,-0.10214 -0.0573,-0.0442 -0.13753,-0.0406 -0.182,-0.1 -0.0775,-0.0143 -0.13095,-0.079 -0.20469,-0.10493 -0.0617,-0.0508 -0.12776,-0.10946 -0.18346,-0.16017 -0.0791,0.01 -0.0923,-0.091 -0.14785,-0.1319 -0.0589,-0.0419 -0.0726,-0.11221 -0.128,-0.154 -0.10466,-0.11757 -0.19503,-0.25261 -0.25577,-0.39888 -0.01,-0.0699 -0.0726,-0.10983 -0.0754,-0.18251 -0.0322,-0.068 -0.062,-0.1258 -0.0765,-0.19722 -0.0172,-0.0732 0.004,-0.15794 -0.0494,-0.22339 0.008,-0.17307 -0.0342,-0.34655 0,-0.5182 -0.003,-0.0918 -0.007,-0.18404 0.04,-0.2668 -0.0105,-0.11376 0.0385,-0.21594 0.086,-0.31484 -0.007,-0.0798 0.0628,-0.10832 0.0735,-0.17805 0.0255,-0.0596 0.0418,-0.12359 0.0834,-0.17585 0.036,-0.11983 0.13909,-0.19365 0.21292,-0.28758 0.0482,-0.043 0.0617,-0.11861 0.12724,-0.14868 0.0462,-0.0505 0.0812,-0.11044 0.151,-0.135 0.0402,-0.0647 0.12572,-0.0796 0.1721,-0.14219 0.0736,-0.0669 0.18799,-0.0557 0.24646,-0.143 0.0517,-0.0364 0.13177,-0.029 0.17948,-0.0612 0.0523,-0.0281 0.12074,-0.0453 0.17636,-0.0716 0.0801,-0.006 0.14437,-0.0626 0.2256,-0.049 0.12505,-0.0388 0.26559,-0.008 0.396,-0.018 z"
       style="fill:#f58220;fill-opacity:1;fill-rule:nonzero;stroke:none" /><path
       id="path204"
       d="m -532.975,675.4819 c 0.23937,0.52664 0.87276,0.929 1.411,0.527 1.0656,-0.67929 1.87327,-1.70927 2.79623,-2.57131 1.20355,-1.16849 2.29916,-2.4753 3.05108,-3.98526 0.78216,-1.54605 1.2429,-3.24781 1.29969,-4.98243 0.18249,-1.75166 -0.11188,-3.54792 -0.634,-5.222 -1.07374,-3.1488 -3.2915,-5.93885 -6.232,-7.532 -4.06765,-2.29768 -9.33684,-2.1447 -13.30562,0.29075 -3.77778,2.25467 -6.22861,6.50614 -6.42138,10.88725 -0.10135,2.01304 0.21704,4.04928 1.026,5.904 0.78118,1.85415 2.08304,3.44354 3.53592,4.82152 0.82328,0.82796 1.58427,1.74128 2.56108,2.38148 0.41473,0.31851 1.08142,0.25885 1.303,-0.244 0.4904,-0.77677 0.82886,-1.74045 0.801,-2.685 -0.12139,-1.55563 -1.48372,-2.50945 -2.571,-3.434 -1.28868,-1.06144 -2.18788,-2.50686 -2.933,-3.988 -0.67339,-1.4442 -1.0274,-3.02611 -0.976,-4.64533 0.009,-3.46908 1.7198,-6.90838 4.527,-8.96267 1.84087,-1.289 4.07034,-2.03389 6.33099,-1.96 3.09066,0.0393 6.05056,1.64248 7.91201,4.08 1.66478,2.14777 2.51284,4.91355 2.336,7.62933 -0.0739,1.65638 -0.59059,3.26321 -1.36,4.70067 -0.71604,1.2927 -1.68811,2.45775 -2.83292,3.38658 -0.85433,0.79496 -1.89887,1.5442 -2.17408,2.73642 -0.20654,0.98147 0.12994,1.98503 0.549,2.867 z"
       style="fill:#f58220;fill-opacity:1;fill-rule:nonzero;stroke:none" /></g></svg>